<?xml version="1.0" encoding="UTF-8"?>
<svg width="14px" height="14px" viewBox="0 0 14 14" version="1.1" xmlns="http://www.w3.org/2000/svg" xmlns:xlink="http://www.w3.org/1999/xlink">
    <!-- Generator: Sketch 47.1 (45422) - http://www.bohemiancoding.com/sketch -->
    <title>01 General / 1.4a Icon</title>
    <desc>Created with Sketch.</desc>
    <defs>
        <path d="M18,4 L9,5.4 L9,14.5 C8.5,14.2 7.8,14 7,14 C5.3,14 4,14.9 4,16 C4,17.1 5.3,18 7,18 C8.7,18 10,17.1 10,16 L10,15.9 L10,6.3 L17,5.2 L17,13.5 C16.5,13.2 15.8,13 15,13 L15,13 C13.3,13 12,13.9 12,15 C12,16.1 13.3,17 15,17 C16.7,17 18,16.1 18,15 L18,15 L18,4 Z M7,17 C5.8,17 5,16.4 5,16 C5,15.6 5.8,15 7,15 C8.2,15 9,15.6 9,16 C9,16.4 8.2,17 7,17 Z M15,16 C13.8,16 13,15.4 13,15 C13,14.6 13.8,14 15,14 C16.2,14 17,14.6 17,15 C17,15.4 16.2,16 15,16 Z" id="path-1"></path>
    </defs>
    <g id="Page-8" stroke="none" stroke-width="1" fill="none" fill-rule="evenodd">
        <g id="01-General-/-1.4a-Icon" transform="translate(-5.000000, -5.000000)">
            <g id="01-General-/-Primitives-/-Icons-/-Music" transform="translate(1.000000, 1.000000)">
                <mask id="mask-2" fill="white">
                    <use xlink:href="#path-1"></use>
                </mask>
                <use id="icon" fill="#3899EC" fill-rule="nonzero" xlink:href="#path-1"></use>
                <g id="01-General-/-Primitives-/-Fill-/-Dark" mask="url(#mask-2)" fill-rule="evenodd" fill="#162D3D">
                    <rect id="Fill-Dark" x="0" y="0" width="22" height="22"></rect>
                </g>
            </g>
        </g>
    </g>
</svg>